<svg xmlns="http://www.w3.org/2000/svg" width="256" height="256" viewBox="0 0 256 256">
<defs><filter id="g" x="-50%" y="-50%" width="200%" height="200%"><feGaussianBlur stdDeviation="9"/></filter></defs>
<g filter="url(#g)" fill="#6a97ff" stroke="#6a97ff" stroke-width="22" stroke-linejoin="round" opacity="0.55"><rect x="121" y="64" width="14" height="128" rx="7"/><rect x="64" y="121" width="128" height="14" rx="7"/><g transform="rotate(0 128 128)"><path d="M128 30 L96 70 L160 70 Z"/></g><g transform="rotate(90 128 128)"><path d="M128 30 L96 70 L160 70 Z"/></g><g transform="rotate(180 128 128)"><path d="M128 30 L96 70 L160 70 Z"/></g><g transform="rotate(270 128 128)"><path d="M128 30 L96 70 L160 70 Z"/></g></g>
<g fill="#16161c" stroke="#16161c" stroke-width="22" stroke-linejoin="round" stroke-linecap="round"><rect x="121" y="64" width="14" height="128" rx="7"/><rect x="64" y="121" width="128" height="14" rx="7"/><g transform="rotate(0 128 128)"><path d="M128 30 L96 70 L160 70 Z"/></g><g transform="rotate(90 128 128)"><path d="M128 30 L96 70 L160 70 Z"/></g><g transform="rotate(180 128 128)"><path d="M128 30 L96 70 L160 70 Z"/></g><g transform="rotate(270 128 128)"><path d="M128 30 L96 70 L160 70 Z"/></g></g>
<g fill="#eef1f8"><rect x="121" y="64" width="14" height="128" rx="7"/><rect x="64" y="121" width="128" height="14" rx="7"/><g transform="rotate(0 128 128)"><path d="M128 30 L96 70 L160 70 Z"/></g><g transform="rotate(90 128 128)"><path d="M128 30 L96 70 L160 70 Z"/></g><g transform="rotate(180 128 128)"><path d="M128 30 L96 70 L160 70 Z"/></g><g transform="rotate(270 128 128)"><path d="M128 30 L96 70 L160 70 Z"/></g></g>

</svg>